Coordinates
version=1
nRows=38
nColumns=12
inDegrees=yes

Units are S.I. units (second, meters, Newtons, ...)
Angles are in degrees

endheader
time	SC_y	SC_z	SC_x	AC_y	AC_z	AC_x	GH_y	GH_z	GH_yy	EL_x	PS_y
       0.0              -28.87         -1.624           49.0           65.3          7.243         -4.465          42.67          86.08          135.7          42.45          10.68
   0.03367              -28.87         -1.618           49.0           65.3          7.243         -4.467          42.64          86.07          135.7          42.45           10.7
   0.06733              -28.87         -1.612          48.99           65.3          7.243         -4.468          42.61          86.06          135.7          42.46          10.72
     0.101              -28.87         -1.606          48.99          65.29          7.243          -4.47          42.58          86.05          135.6          42.46          10.75
    0.1347              -28.87         -1.599          48.99          65.29          7.243         -4.472          42.55          86.04          135.6          42.47          10.77
    0.1683              -28.87         -1.591          48.98          65.29          7.242         -4.474          42.51          86.03          135.6          42.48           10.8
     0.202              -28.87         -1.584          48.98          65.29          7.242         -4.476          42.47          86.02          135.6          42.48          10.82
    0.2357              -28.88         -1.575          48.97          65.28          7.242         -4.479          42.43          86.01          135.5          42.49          10.85
    0.2693              -28.88         -1.566          48.96          65.28          7.242         -4.481          42.38          85.99          135.5           42.5          10.88
     0.303              -28.88         -1.557          48.96          65.28          7.242         -4.484          42.34          85.98          135.5          42.51          10.92
    0.3367              -28.88         -1.546          48.95          65.28          7.241         -4.487          42.28          85.96          135.4          42.52          10.95
    0.3703              -28.88         -1.535          48.94          65.27          7.241          -4.49          42.23          85.95          135.4          42.53          10.99
     0.404              -28.88         -1.523          48.94          65.27          7.241         -4.494          42.17          85.93          135.4          42.54          11.04
    0.4377              -28.88          -1.51          48.93          65.26           7.24         -4.497           42.1          85.91          135.3          42.55          11.08
    0.4713              -28.88         -1.496          48.92          65.26           7.24         -4.501          42.03          85.89          135.3          42.56          11.13
     0.505              -28.88         -1.481          48.91          65.26           7.24         -4.506          41.96          85.86          135.2          42.58          11.19
    0.5387              -28.88         -1.464           48.9          65.25          7.239          -4.51          41.87          85.84          135.2          42.59          11.24
    0.5723              -28.88         -1.446          48.88          65.24          7.239         -4.516          41.78          85.81          135.1          42.61          11.31
     0.606              -28.88         -1.427          48.87          65.24          7.238         -4.521          41.69          85.78          135.0          42.63          11.38
    0.6397              -28.88         -1.405          48.86          65.23          7.238         -4.527          41.58          85.75          134.9          42.65          11.45
    0.6733              -28.88         -1.382          48.84          65.22          7.237         -4.534          41.46          85.71          134.9          42.67          11.54
     0.707              -28.88         -1.356          48.82          65.22          7.236         -4.542          41.33          85.67          134.8          42.69          11.63
    0.7407              -28.89         -1.327          48.81          65.21          7.236          -4.55          41.19          85.63          134.7          42.72          11.73
    0.7743              -28.89         -1.295          48.78           65.2          7.235         -4.559          41.03          85.58          134.6          42.75          11.84
     0.808              -28.89          -1.26          48.76          65.19          7.234         -4.569          40.85          85.53          134.4          42.78          11.97
    0.8417              -28.89          -1.22          48.74          65.17          7.233          -4.58          40.65          85.47          134.3          42.82           12.1
    0.8753              -28.89         -1.176          48.71          65.16          7.232         -4.593          40.43           85.4          134.1          42.86          12.26
     0.909              -28.89         -1.126          48.67          65.15           7.23         -4.607          40.18          85.33          134.0          42.91          12.44
    0.9427               -28.9          -1.07          48.64          65.13          7.229         -4.623           39.9          85.24          133.8          42.96          12.63
    0.9763               -28.9         -1.006          48.59          65.11          7.227         -4.642          39.58          85.14          133.5          43.02          12.86
      1.01               -28.9         -0.933          48.55          65.08          7.225         -4.662          39.21          85.03          133.3          43.08          13.12
     1.044              -28.91        -0.8494          48.49          65.06          7.223         -4.686          38.79          84.91          133.0          43.16          13.41
     1.077              -28.91        -0.7528          48.43          65.03           7.22         -4.714          38.31          84.76          132.7          43.25          13.75
     1.111              -28.91        -0.6406          48.35          64.99          7.218         -4.746          37.75          84.59          132.3          43.35          14.15
     1.145              -28.92        -0.5093          48.27          64.95          7.214         -4.783          37.09          84.39          131.8          43.48          14.61
     1.178              -28.93        -0.3546          48.16           64.9           7.21         -4.828          36.32          84.16          131.3          43.62          15.16
     1.212              -28.93        -0.1706          48.04          64.85          7.205          -4.88           35.4          83.88          130.6          43.79           15.8
     1.246              -28.94        0.04985           47.9          64.78          7.199         -4.943          34.29          83.54          129.8          43.99          16.58
